{"title":"Timeline-AC3-XviD-BRRip 2003","uid":6618393,"size":1673919873,"categoryP":"video","categoryS":"movies","magnet":"?xt=urn:btih:f9022ae656498f555b36e9a161f37d6f8b2eba11&amp;dn=Timeline-AC3-XviD-BRRip+2003&amp;tr=udp%3A%2F%2Ftracker.openbittorrent.com%3A80&amp;tr=udp%3A%2F%2Fopen.demonii.com%3A1337&amp;tr=udp%3A%2F%2Ftracker.coppersurfer.tk%3A6969&amp;tr=udp%3A%2F%2Fexodus.desync.com%3A6969","seeders":0,"leechers":1,"uploader":"FatFreddy31","files":-1,"time":1313882980,"description":"[img]http://img842.imageshack.us/img842/561/timeline2003.jpg[/img]\n &lt;a href=&quot;\nhttp://www.imdb.com/title/tt0300556/&quot; rel=&quot;nofollow&quot; target=&quot;_NEW&quot;&gt;\nhttp://www.imdb.com/title/tt0300556/&lt;/a&gt;\n &lt;a href=&quot;\nhttp://www.moviemeter.nl/film/12113&quot; rel=&quot;nofollow&quot; target=&quot;_NEW&quot;&gt;\nhttp://www.moviemeter.nl/film/12113&lt;/a&gt;\n\nSubs: Dutch, English (srt).\n\nGeneral\nComplete name                    : Timeline-AC3-XviD-BRRip 2003.avi\nFormat                           : AVI\nFormat/Info                      : Audio Video Interleave\nFile size                        : 1.56 GiB\nDuration                         : 1h 51mn\nOverall bit rate                 : 2 006 Kbps\nWriting application              : VirtualDubMod 1.5.4.1 (build 2178/release)\nWriting library                  : VirtualDubMod build 2178/release\n\nVideo\nID                               : 0\nFormat                           : MPEG-4 Visual\nFormat profile                   : Simple@L3\nFormat settings, BVOP            : No\nFormat settings, QPel            : No\nFormat settings, GMC             : No warppoints\nFormat settings, Matrix          : Default (H.263)\nCodec ID                         : XVID\nCodec ID/Hint                    : XviD\nDuration                         : 1h 51mn\nBit rate                         : 1 548 Kbps\nWidth                            : 720 pixels\nHeight                           : 304 pixels\nDisplay aspect ratio             : 2.35:1\nFrame rate                       : 25.000 fps\nColor space                      : YUV\nChroma subsampling               : 4:2:0\nBit depth                        : 8 bits\nScan type                        : Progressive\nCompression mode                 : Lossy\nBits/(Pixel*Frame)               : 0.283\nStream size                      : 1.20 GiB (77%)\nWriting library                  : XviD 1.1.2 (UTC 2006-11-01)\n\nAudio\nID                               : 1\nFormat                           : AC-3\nFormat/Info                      : Audio Coding 3\nMode extension                   : CM (complete main)\nCodec ID                         : 2000\nDuration                         : 1h 51mn\nBit rate mode                    : Constant\nBit rate                         : 448 Kbps\nChannel(s)                       : 6 channels\nChannel positions                : Front: L C R, Side: L R, LFE\nSampling rate                    : 48.0 KHz\nBit depth                        : 16 bits\nCompression mode                 : Lossy\nStream size                      : 356 MiB (22%)\nAlignment                        : Split accross interleaves\nInterleave, duration             : 40 ms (1.00 video frame)\nInterleave, preload duration     : 500 ms\n\n\n[img]http://img221.imageshack.us/img221/3881/timelineac3xvidbrrip200.jpg[/img]","torrent":{"xt":"urn:btih:f9022ae656498f555b36e9a161f37d6f8b2eba11","amp;dn":"Timeline-AC3-XviD-BRRip+2003","amp;tr":["udp%3A%2F%2Ftracker.openbittorrent.com%3A80","udp%3A%2F%2Fopen.demonii.com%3A1337","udp%3A%2F%2Ftracker.coppersurfer.tk%3A6969","udp%3A%2F%2Fexodus.desync.com%3A6969"],"infoHash":"f9022ae656498f555b36e9a161f37d6f8b2eba11","infoHashBuffer":{"type":"Buffer","data":[249,2,42,230,86,73,143,85,91,54,233,161,97,243,125,111,139,46,186,17]},"announce":[],"urlList":[]}}